<?xml version="1.0" encoding="utf-8"?>
<!-- Generator: Adobe Illustrator 23.0.4, SVG Export Plug-In . SVG Version: 6.00 Build 0)  -->
<svg version="1.1" id="Layer_1" xmlns="http://www.w3.org/2000/svg" xmlns:xlink="http://www.w3.org/1999/xlink" x="0px" y="0px"
	 viewBox="0 0 48 40" style="enable-background:new 0 0 48 40;" xml:space="preserve">
<style type="text/css">
	.st0{fill:#A60014;}
</style>
<g id="fvOGm8_1_">
	<g>
		<path class="st0" d="M43.4,21.5c0,0-0.1,0.1-0.1,0.1c-0.4,1-1.5,1.1-2.2,0.2c-0.8-1-1.6-1.9-2.8-2.5c-1.5-0.8-3-0.8-4.5,0
			c-1.1,0.6-2,1.4-2.8,2.4c-0.6,0.9-1.5,0.9-2.2,0c-0.7-1-1.6-1.8-2.7-2.4c-1.5-0.8-3-0.8-4.5,0c-1.1,0.6-2,1.4-2.7,2.4
			c-0.6,0.9-1.5,0.9-2.2,0c-0.7-1-1.6-1.8-2.7-2.4c-1.5-0.8-3-0.8-4.5-0.1c-1.1,0.6-2,1.4-2.7,2.3c-0.8,1.1-1.7,1-2.4-0.2
			c0-0.5,0-1.1,0-1.6c0-0.1,0.1-0.2,0.1-0.4c0.1-1,0.2-2,0.5-3c1.5-5.5,4.7-9.6,9.7-12.4C18.6,2.1,22.7,1.3,27,2
			c3.7,0.6,7,2.2,9.8,4.7c3.3,3,5.4,6.7,6.3,11.1c0.1,0.7,0.2,1.4,0.3,2.1C43.4,20.5,43.4,21,43.4,21.5z M28.8,18.2
			c0-0.5,0-0.9-0.1-1.3c-0.1-2.5-0.4-5-1.1-7.4c-0.4-1.4-0.8-2.8-1.7-4c-1.2-1.6-2.7-1.6-3.9,0c-0.6,0.8-1,1.7-1.3,2.7
			c-0.9,2.7-1.2,5.5-1.4,8.4c0,0.5-0.1,1-0.1,1.6C22.4,15.8,25.6,15.8,28.8,18.2z M40.7,18c-0.7-3.7-2.3-6.7-5-9.2
			c-2.1-2-4.7-3.3-7.6-4c2.2,4.3,2.7,8.9,3.1,13.5C34.3,15.9,37.4,15.7,40.7,18z M7.3,18c1.5-1,3-1.7,4.8-1.6
			c1.8,0.1,3.3,0.8,4.7,1.9c0.3-4.7,0.8-9.3,3-13.5C13.8,6,8.4,11.3,7.3,18z"/>
		<path class="st0" d="M25.2,27.4c0,2,0,3.9,0,5.9c0,2.6-2.1,4.8-4.6,4.9c-2.5,0.1-4.8-1.9-5.1-4.5c0-0.2,0-0.4,0-0.6
			c0.1-0.6,0.7-1,1.3-1c0.6,0,1.1,0.5,1.1,1.1c0,0.2,0,0.3,0,0.5c0.2,1.5,1.3,2.2,2.9,2c1.3-0.2,2-1,2-2.4c0-2.1,0-4.2,0-6.3
			c0-1.9,0-3.9,0-5.8c0-0.6,0.3-1,0.9-1.2c0.5-0.1,1.1,0.1,1.4,0.5c0.2,0.2,0.2,0.5,0.2,0.8C25.2,23.4,25.2,25.4,25.2,27.4z"/>
	</g>
</g>
</svg>
