<?xml version="1.0" encoding="utf-8"?>
<!-- Generator: Adobe Illustrator 23.0.4, SVG Export Plug-In . SVG Version: 6.00 Build 0)  -->
<svg version="1.1" id="Layer_1" xmlns="http://www.w3.org/2000/svg" xmlns:xlink="http://www.w3.org/1999/xlink" x="0px" y="0px"
	 viewBox="0 0 48 40" style="enable-background:new 0 0 48 40;" xml:space="preserve">
<style type="text/css">
	.st0{fill:#A60014;}
</style>
<g>
	<g>
		<path class="st0" d="M30.5,39.6H12.3c-1,0-2-0.5-2.6-1.2C9,37.6,8.8,36.6,9,35.6c0.7-3.5,1.7-9,1.9-10.1c0.3-1.9,1.7-3.3,3.8-3.9
			l3.5-0.9c0.8-0.2,0.8-0.4,0.8-0.6v-2.6h2v2.6c0,0.9-0.4,2-2.3,2.5l-3.5,0.9c-0.7,0.2-2,0.7-2.3,2.3c-0.2,1.1-1.2,6.6-1.9,10.1
			c-0.1,0.4,0,0.8,0.3,1.2c0.3,0.3,0.7,0.5,1.1,0.5h18.1C30.5,37.6,30.5,39.6,30.5,39.6z"/>
	</g>
	<g>
		<path class="st0" d="M35.7,39.6h-1.9v-2h1.9c0.4,0,0.8-0.2,1.1-0.5s0.4-0.8,0.3-1.2c-0.7-3.5-1.7-9-1.9-10.1
			c-0.3-1.5-1.6-2.1-2.3-2.3l-3.5-0.9c-1.9-0.5-2.3-1.6-2.3-2.5v-2.6h2v2.6c0,0.2,0,0.4,0.8,0.6l3.5,0.9c2.1,0.5,3.5,1.9,3.8,3.9
			c0.2,1.1,1.2,6.6,1.9,10.1c0.2,1-0.1,2-0.7,2.8C37.6,39.2,36.7,39.6,35.7,39.6z"/>
	</g>
	<g>
		<path class="st0" d="M24,19.4c-1.2,0-2.3-0.4-2.9-0.7c-0.1,0-0.1-0.1-0.3-0.1c-1.2-0.5-4.4-1.7-4.4-4.3V13
			c-0.8-1.3-0.8-1.7-0.8-1.9V8.2l0.8-0.8V6.2c0-3.3,2.9-5.9,6.7-5.9h1.6c3.7,0,6.7,2.6,6.7,5.9v1.2l0.8,0.8V11c0,0.2,0,0.6-0.8,1.9
			v1.3c0,2.6-3.2,3.8-4.4,4.3c-0.1,0-0.2,0.1-0.3,0.1C26.3,19,25.2,19.4,24,19.4z M17.7,11c0.1,0.2,0.4,0.7,0.6,1.2l0.2,0.2v1.9
			c0,1.2,2.3,2.1,3.1,2.4c0.2,0.1,0.3,0.1,0.4,0.2c0.3,0.1,1.1,0.5,2,0.5s1.7-0.3,2-0.5c0.1,0,0.2-0.1,0.4-0.2
			c0.8-0.3,3.1-1.2,3.1-2.4v-1.9l0.2-0.2c0.3-0.4,0.6-1,0.6-1.2V9.1l-0.8-0.8v-2c0-2.1-2.1-3.9-4.7-3.9h-1.6c-2.6,0-4.7,1.7-4.7,3.9
			v2l-0.8,0.8C17.7,9.1,17.7,11,17.7,11z"/>
	</g>
	<g>
		<path class="st0" d="M30.5,39.6v-2c0.3,0,0.6-0.3,0.6-0.6v-4c0-0.3-0.3-0.6-0.6-0.6h-3.2v-2h3.2c1.4,0,2.6,1.2,2.6,2.6v4
			C33.1,38.5,31.9,39.6,30.5,39.6z"/>
	</g>
	<g>
		<rect x="16.7" y="30.3" class="st0" width="4.1" height="2"/>
	</g>
	<g>
		<polygon class="st0" points="28.2,38.6 26.2,38.6 26.2,31.7 19.1,21.4 20.8,20.2 28.2,31 		"/>
	</g>
	<g>
		<polygon class="st0" points="21.8,38.6 19.8,38.6 19.8,31.6 14.2,23 15.9,21.9 21.8,31.1 		"/>
	</g>
</g>
</svg>
