<?xml version="1.0" encoding="utf-8"?>
<!-- Generator: Adobe Illustrator 23.0.4, SVG Export Plug-In . SVG Version: 6.00 Build 0)  -->
<svg version="1.1" id="Layer_1" xmlns="http://www.w3.org/2000/svg" xmlns:xlink="http://www.w3.org/1999/xlink" x="0px" y="0px"
	 viewBox="0 0 48 40" style="enable-background:new 0 0 48 40;" xml:space="preserve">
<style type="text/css">
	.st0{fill:#A60014;}
</style>
<g>
	<g>
		<path class="st0" d="M29.1,30.3c-2,0-3.9,0-5.7,0c-2.3,0-4.8,0-7.3,0v-2.1c2.6,0,5,0,7.4,0s4.9,0,7.5,0v2.1
			C30.2,30.3,29.6,30.3,29.1,30.3z"/>
	</g>
	<g>
		<path class="st0" d="M6.3,30.3h-1c-2.6,0-4.4-1.5-5.1-4c-0.5-2.2-0.2-4.9,1-7.9c0.1-0.4,0.5-0.6,1-0.6h1.9l1-0.6
			c3.8-2.7,6.6-4.7,10.9-4.7h6.3c4.4,0,8.2,1.7,12.2,5.4c2.7,0.3,13.1,2.1,13.1,6.1v5.3c0,0.6-0.4,1.1-1.1,1.1h-6.3v-2.1h5.3v-4.2
			c0-1.1-4.4-3.2-11.7-4.2c-0.2,0-0.4-0.1-0.5-0.3c-3.7-3.5-7-5-11-5h-6.3c-3.7,0-5.9,1.6-9.6,4.2l-1.2,0.8
			c-0.2,0.1-0.4,0.2-0.6,0.2H3c-0.8,2.4-1.1,4.4-0.6,6c0.4,1.7,1.4,2.4,3.1,2.4h1V30.3z"/>
	</g>
	<g>
		<path class="st0" d="M28.8,21.8h-15c-0.3,0-0.5-0.1-0.7-0.3l-3.2-3.2l1.5-1.5l2.9,2.9h14.4l1.9-0.7l0.7,2l-2.1,0.8
			C29,21.8,28.9,21.8,28.8,21.8z"/>
	</g>
	<g>
		<path class="st0" d="M10.6,34.5c-3,0-5.3-2.3-5.3-5.3s2.4-5.3,5.3-5.3s5.3,2.3,5.3,5.3S13.5,34.5,10.6,34.5z M10.6,26
			c-1.8,0-3.2,1.4-3.2,3.2c0,1.8,1.5,3.2,3.2,3.2s3.2-1.4,3.2-3.2C13.7,27.4,12.4,26,10.6,26z"/>
	</g>
	<g>
		<path class="st0" d="M36,34.5c-3,0-5.3-2.3-5.3-5.3s2.4-5.3,5.3-5.3s5.3,2.3,5.3,5.3S38.9,34.5,36,34.5z M36,26
			c-1.8,0-3.2,1.4-3.2,3.2c0,1.8,1.5,3.2,3.2,3.2c1.7,0,3.2-1.4,3.2-3.2C39.1,27.4,37.8,26,36,26z"/>
	</g>
</g>
</svg>
